<?xml version="1.0" encoding="UTF-8"?>
<svg version="1.1" xmlns="http://www.w3.org/2000/svg" width="208" height="232">
<path d="M0 0 C4.64219868 2.27889753 8.83165204 5.65804372 10.59669113 10.70678234 C11.15603788 13.88723273 11.13305109 16.96188207 11.14044189 20.19148254 C11.14341302 20.9168336 11.14638414 21.64218466 11.1494453 22.38951606 C11.15811856 24.82064284 11.15963938 27.2517203 11.16113281 29.68286133 C11.16576193 31.42576706 11.17078672 33.16867178 11.17617798 34.91157532 C11.18929437 39.64719424 11.19574538 44.38279899 11.20018864 49.11843324 C11.20312041 52.07740294 11.20722541 55.03636878 11.21169281 57.99533653 C11.22536535 67.25432086 11.23503336 76.51329633 11.2388947 85.77229005 C11.24337586 96.45862144 11.2609275 107.14482495 11.2898953 117.83111745 C11.31151295 126.09281292 11.32159902 134.35447241 11.32293582 142.61619586 C11.32398373 147.54993938 11.32988866 152.48356265 11.34775543 157.41727638 C11.36423766 162.05890246 11.36639087 166.7003179 11.35761642 171.34196281 C11.35684615 173.04350473 11.36118752 174.74505798 11.37107468 176.44657135 C11.38380252 178.77381968 11.37791331 181.10032289 11.36749268 183.42756653 C11.36895924 184.72855191 11.3704258 186.0295373 11.3719368 187.36994648 C10.88953801 192.07809429 9.66350409 196.11215567 6.46484375 199.7421875 C0.47335097 204.18600567 -3.57211368 204.7564467 -11 204 C-15.4364407 201.82211093 -18.24218913 199.08564574 -21 195 C-21.9898699 191.93458657 -22.14970987 189.07388732 -22.20532227 185.86425781 C-22.2352401 184.33312347 -22.2352401 184.33312347 -22.26576233 182.77105713 C-22.28247482 181.67613953 -22.29918732 180.58122192 -22.31640625 179.453125 C-22.3475779 177.76361725 -22.3475779 177.76361725 -22.37937927 176.03997803 C-22.44474333 172.44338051 -22.50369885 168.84671023 -22.5625 165.25 C-22.6056977 162.8111904 -22.6493124 160.37238816 -22.69335938 157.93359375 C-22.8004113 151.955806 -22.90220217 145.97794593 -23 140 C-23.31453125 141.19786133 -23.6290625 142.39572266 -23.953125 143.62988281 C-28.30688901 159.93425858 -28.30688901 159.93425858 -32 166.75 C-32.31710938 167.38164062 -32.63421875 168.01328125 -32.9609375 168.6640625 C-39.11516309 180.52940944 -49.64177033 187.45444426 -62 192 C-75.85781517 196.10601931 -89.94279873 194.35044191 -102.75 187.8125 C-116.4066614 179.95456576 -125.59043285 168.42297734 -129.7890625 153.125 C-132.65829663 138.74057288 -130.30310704 124.78677813 -122.75 112.25 C-111.03597657 95.08587303 -92.70906132 89.22112553 -73.10205078 85.33374023 C-64.81716557 83.7856718 -56.5108551 82.59192835 -48.125 81.75 C-47.34294189 81.66983643 -46.56088379 81.58967285 -45.75512695 81.50708008 C-40.38441654 81.03119435 -35.05052326 80.962783 -29.66357422 80.98144531 C-28.92473495 80.98278473 -28.18589569 80.98412415 -27.42466736 80.98550415 C-25.61644178 80.98897606 -23.80821992 80.99429967 -22 81 C-22.00999275 79.74545265 -22.00999275 79.74545265 -22.02018738 78.46556091 C-22.08041767 70.56520317 -22.12603485 62.66492307 -22.15543652 54.76438808 C-22.17106063 50.70309554 -22.19223893 46.64199348 -22.22631836 42.58081055 C-22.25902862 38.65802716 -22.27687748 34.73542646 -22.28463173 30.81251717 C-22.29015439 29.31945993 -22.30093873 27.82641215 -22.31719017 26.33343315 C-22.33912048 24.23436118 -22.34196056 22.1360342 -22.34057617 20.03686523 C-22.35056892 18.24816261 -22.35056892 18.24816261 -22.36076355 16.42332458 C-21.87601789 11.8235203 -20.58584083 7.7997074 -17.46484375 4.2578125 C-11.47335097 -0.18600567 -7.42788632 -0.7564467 0 0 Z " fill="#CB1C85" transform="translate(164,14)"/>
<path d="M0 0 C4.64219868 2.27889753 8.83165204 5.65804372 10.59669113 10.70678234 C11.15603788 13.88723273 11.13305109 16.96188207 11.14044189 20.19148254 C11.14341302 20.9168336 11.14638414 21.64218466 11.1494453 22.38951606 C11.15811856 24.82064284 11.15963938 27.2517203 11.16113281 29.68286133 C11.16576193 31.42576706 11.17078672 33.16867178 11.17617798 34.91157532 C11.18929437 39.64719424 11.19574538 44.38279899 11.20018864 49.11843324 C11.20312041 52.07740294 11.20722541 55.03636878 11.21169281 57.99533653 C11.22536535 67.25432086 11.23503336 76.51329633 11.2388947 85.77229005 C11.24337586 96.45862144 11.2609275 107.14482495 11.2898953 117.83111745 C11.31151295 126.09281292 11.32159902 134.35447241 11.32293582 142.61619586 C11.32398373 147.54993938 11.32988866 152.48356265 11.34775543 157.41727638 C11.36423766 162.05890246 11.36639087 166.7003179 11.35761642 171.34196281 C11.35684615 173.04350473 11.36118752 174.74505798 11.37107468 176.44657135 C11.38380252 178.77381968 11.37791331 181.10032289 11.36749268 183.42756653 C11.36895924 184.72855191 11.3704258 186.0295373 11.3719368 187.36994648 C10.88953801 192.07809429 9.66350409 196.11215567 6.46484375 199.7421875 C0.47335097 204.18600567 -3.57211368 204.7564467 -11 204 C-15.4364407 201.82211093 -18.24218913 199.08564574 -21 195 C-22.02807857 191.85255678 -22.14274323 188.91451075 -22.17700195 185.61621094 C-22.18967606 184.52853424 -22.20235016 183.44085754 -22.21540833 182.32022095 C-22.22295639 181.13689178 -22.23050446 179.95356262 -22.23828125 178.734375 C-22.24780319 177.49231293 -22.25732513 176.25025085 -22.26713562 174.97055054 C-22.29183248 170.89700537 -22.3043207 166.82360211 -22.3125 162.75 C-22.3145343 162.06025841 -22.3165686 161.37051682 -22.31866455 160.65987396 C-22.39264008 133.95052294 -20.85038481 107.56695096 -18 81 C-19.32 81 -20.64 81 -22 81 C-22.0696572 72.25483642 -22.12289077 63.50976905 -22.15543652 54.76438808 C-22.17106063 50.70309554 -22.19223893 46.64199348 -22.22631836 42.58081055 C-22.25902862 38.65802716 -22.27687748 34.73542646 -22.28463173 30.81251717 C-22.29015439 29.31945993 -22.30093873 27.82641215 -22.31719017 26.33343315 C-22.33912048 24.23436118 -22.34196056 22.1360342 -22.34057617 20.03686523 C-22.34723801 18.84439682 -22.35389984 17.65192841 -22.36076355 16.42332458 C-21.87601789 11.8235203 -20.58584083 7.7997074 -17.46484375 4.2578125 C-11.47335097 -0.18600567 -7.42788632 -0.7564467 0 0 Z " fill="#4A063A" transform="translate(164,14)"/>
</svg>
